# Blender 5.1.2
# www.blender.org
mtllib tornado.mtl
o Cylinder
v 0.223898 0.003362 -1.875651
v -1.770073 9.907125 5.363380
v 0.701723 0.003362 -1.753791
v -3.097904 9.907125 4.722499
v 1.131727 0.003362 -1.512413
v -4.214618 9.907125 3.759787
v 1.484606 0.003362 -1.167966
v -5.044113 9.907125 2.540852
v 1.736311 0.003362 -0.743924
v -5.529860 9.907125 1.148762
v 1.869689 0.003362 -0.269185
v -5.638756 9.907125 -0.321614
v 1.875651 0.003362 0.223898
v -5.363380 9.907125 -1.770073
v 1.753791 0.003362 0.701723
v -4.722499 9.907125 -3.097904
v 1.512412 0.003362 1.131727
v -3.759787 9.907125 -4.214618
v 1.167966 0.003362 1.484606
v -2.540852 9.907125 -5.044113
v 0.743924 0.003362 1.736311
v -1.148762 9.907125 -5.529860
v 0.269185 0.003362 1.869689
v 0.321615 9.907125 -5.638756
v -0.223898 0.003362 1.875651
v 1.770073 9.907125 -5.363380
v -0.701723 0.003362 1.753791
v 3.097904 9.907125 -4.722499
v -1.131727 0.003362 1.512412
v 4.214619 9.907125 -3.759787
v -1.484606 0.003362 1.167966
v 5.044113 9.907125 -2.540852
v -1.736311 0.003362 0.743924
v 5.529860 9.907125 -1.148762
v -1.869689 0.003362 0.269185
v 5.638756 9.907125 0.321614
v -1.875651 0.003362 -0.223898
v 5.363380 9.907125 1.770073
v -1.753791 0.003362 -0.701723
v 4.722499 9.907125 3.097904
v -1.512412 0.003362 -1.131727
v 3.759787 9.907125 4.214619
v -1.167966 0.003362 -1.484606
v 2.540853 9.907125 5.044113
v -0.743924 0.003362 -1.736311
v 1.148762 9.907125 5.529860
v -0.269185 0.003362 -1.869689
v -0.321614 9.907125 5.638756
v 0.302039 0.903704 -1.239241
v 0.693533 1.804046 -1.230087
v 0.954375 2.704388 -0.884216
v 1.235017 3.604730 -0.553161
v 1.885878 4.505072 -0.106452
v 2.700135 5.405414 0.840152
v 2.594328 6.305756 2.217617
v 1.753254 7.170280 3.121931
v 0.613470 7.957174 3.807973
v -0.721083 8.815714 4.494602
v -1.859801 8.815714 4.154822
v -0.337565 7.957174 3.800299
v 1.012658 7.170280 3.317252
v 2.016232 6.305756 2.569652
v 2.359318 5.405414 1.382426
v 1.869463 4.505072 0.529091
v 1.459842 3.604730 -0.012255
v 1.275940 2.704388 -0.507442
v 1.028417 1.804046 -0.997026
v 0.612520 0.903704 -1.119201
v -2.871777 8.815714 3.531898
v -1.260069 7.957174 3.555763
v 0.249620 7.170280 3.331347
v 1.395311 6.305756 2.763204
v 1.902017 5.405414 1.825480
v 1.670030 4.505072 1.144462
v 1.512418 3.604730 0.584200
v 1.481397 2.704388 -0.046203
v 1.291284 1.804046 -0.682961
v 0.881507 0.903704 -0.922809
v -3.688046 8.815714 2.668281
v -2.098162 7.957174 3.087857
v -0.481773 7.170280 3.168968
v 0.760528 6.305756 2.808132
v 1.356194 5.405414 2.146275
v 1.299659 4.505072 1.680806
v 1.376826 3.604730 1.180651
v 1.546563 2.704388 0.460797
v 1.464284 1.804046 -0.308258
v 1.090417 0.903704 -0.663517
v -4.252980 8.815714 1.622825
v -2.798023 7.957174 2.422418
v -1.152098 7.170280 2.847220
v 0.133568 6.305756 2.715169
v 0.748077 5.405414 2.330753
v 0.786677 4.505072 2.085363
v 1.059205 3.604730 1.716682
v 1.462410 2.704388 0.970267
v 1.531254 1.804046 0.098816
v 1.224798 0.903704 -0.359086
v -4.528081 8.815714 0.466776
v -3.311266 7.957174 1.598582
v -1.735564 7.170280 2.383820
v -0.467200 6.305756 2.493000
v 0.098074 5.405414 2.366963
v 0.174933 4.505072 2.325993
v 0.589037 3.604730 2.136961
v 1.235194 2.704388 1.437515
v 1.487047 1.804046 0.508825
v 1.275916 0.903704 -0.030137
v -4.494602 8.815714 -0.721083
v -3.599572 7.957174 0.668121
v -2.223856 7.170280 1.777190
v -1.023393 6.305756 2.148186
v -0.550623 5.405414 2.241094
v -0.484970 4.505072 2.385559
v 0.015179 3.604730 2.401201
v 0.886057 2.704388 1.822421
v 1.335075 1.804046 0.892202
v 1.239983 0.903704 0.300807
v -4.154822 8.815714 -1.859801
v -3.639164 7.957174 -0.307484
v -2.569021 7.170280 1.047598
v -1.517581 6.305756 1.680138
v -1.157954 5.405414 1.951734
v -1.139468 4.505072 2.262099
v -0.602740 3.604730 2.490943
v 0.447994 2.704388 2.094707
v 1.087170 1.804046 1.222014
v 1.119594 0.903704 0.611258
v -3.531897 8.815714 -2.871777
v -3.423770 7.957174 -1.261746
v -2.728160 7.170280 0.235602
v -1.930120 6.305756 1.064261
v -1.682030 5.405414 1.507435
v -1.737178 4.505072 1.971506
v -1.205102 3.604730 2.411004
v -0.039139 2.704388 2.237247
v 0.760957 1.804046 1.474677
v 0.923180 0.903704 0.880160
v -2.668281 8.815714 -3.688046
v -2.965458 7.957174 -2.128589
v -2.672896 7.170280 -0.610845
v -2.182595 6.305756 0.340578
v -2.081343 5.405414 0.928254
v -2.238756 4.505072 1.533434
v -1.741875 3.604730 2.185338
v -0.536484 2.704388 2.246243
v 0.380170 1.804046 1.633311
v 0.663921 0.903704 1.089105
v -1.622825 8.815714 -4.252981
v -2.293578 7.957174 -2.847355
v -2.387783 7.170280 -1.432078
v -2.233362 6.305756 -0.449509
v -2.318756 5.405414 0.248837
v -2.594760 4.505072 0.984577
v -2.202497 3.604730 1.820400
v -1.023291 2.704388 2.121130
v -0.027506 1.804046 1.688349
v 0.359418 0.903704 1.223830
v -0.466776 8.815714 -4.528081
v -1.452510 7.957174 -3.366916
v -1.876071 7.170280 -2.160664
v -2.029710 6.305756 -1.283975
v -2.363459 5.405414 -0.484358
v -2.780903 4.505072 0.365229
v -2.540135 3.604730 1.361534
v -1.447252 2.704388 1.880468
v -0.433961 1.804046 1.636893
v 0.030420 0.903704 1.275154
v 0.721083 8.815714 -4.494602
v -0.498752 7.957174 -3.648956
v -1.157487 7.170280 -2.731012
v -1.566985 6.305756 -2.029398
v -2.194697 5.405414 -1.219269
v -2.800872 4.505072 -0.264918
v -2.735189 3.604730 0.861737
v -1.782643 2.704388 1.549936
v -0.809629 1.804046 1.484791
v -0.300651 0.903704 1.239577
v 1.859801 8.815714 -4.154822
v 0.502375 7.957174 -3.670614
v -0.271521 7.170280 -3.077594
v -0.884646 6.305756 -2.601768
v -1.822567 5.405414 -1.876851
v -2.664878 4.505072 -0.857531
v -2.791823 3.604730 0.359915
v -2.013866 2.704388 1.158192
v -1.129906 1.804046 1.243506
v -0.611232 0.903704 1.119525
v 2.871778 8.815714 -3.531898
v 1.480577 7.957174 -3.426655
v 0.678497 7.170280 -3.149984
v -0.053352 6.305756 -2.938446
v -1.281080 5.405414 -2.401707
v -2.393097 4.505072 -1.377879
v -2.720553 3.604730 -0.158099
v -2.138443 2.704388 0.721203
v -1.373346 1.804046 0.931177
v -0.880160 0.903704 0.923180
v 3.688046 8.815714 -2.668281
v 2.365146 7.957174 -2.930989
v 1.602917 7.170280 -2.947423
v 0.837025 6.305756 -3.009616
v -0.621278 5.405414 -2.752414
v -2.004845 4.505072 -1.821679
v -2.527319 3.604730 -0.614959
v -2.147918 2.704388 0.273134
v -1.527026 1.804046 0.568340
v -1.089105 0.903704 0.663921
v 4.252981 8.815714 -1.622825
v 3.090354 7.957174 -2.217114
v 2.419769 7.170280 -2.500670
v 1.692992 6.305756 -2.822661
v 0.114728 5.405414 -2.906984
v -1.520724 4.505072 -2.145302
v -2.236042 3.604730 -0.993128
v -2.046001 2.704388 -0.153312
v -1.581822 1.804046 0.179208
v -1.223831 0.903704 0.359418
v 4.528081 8.815714 -0.466776
v 3.601479 7.957174 -1.336794
v 3.084476 7.170280 -1.834562
v 2.437428 6.305756 -2.418527
v 0.858842 5.405414 -2.852937
v -0.980796 4.505072 -2.332668
v -1.869092 3.604730 -1.283756
v -1.844440 2.704388 -0.537010
v -1.535956 1.804046 -0.212020
v -1.275080 0.903704 0.030447
v 4.494602 8.815714 0.721083
v 3.860674 7.957174 -0.356353
v 3.533324 7.170280 -1.014690
v 3.026320 6.305756 -1.845500
v 1.545715 5.405414 -2.603845
v -0.427445 4.505072 -2.372873
v -1.446008 3.604730 -1.482623
v -1.557320 2.704388 -0.860885
v -1.392658 1.804046 -0.580821
v -1.239172 0.903704 -0.300494
v 4.154822 8.815714 1.859801
v 3.851405 7.957174 0.649550
v 3.734706 7.170280 -0.127051
v 3.446140 6.305756 -1.107908
v 2.125271 5.405414 -2.191326
v 0.110581 4.505072 -2.273190
v -0.984189 3.604730 -1.586940
v -1.200278 2.704388 -1.110729
v -1.159909 1.804046 -0.903100
v -1.118812 0.903704 -0.610961
v 3.531898 8.815714 2.871777
v 3.580039 7.957174 1.605964
v 3.692086 7.170280 0.750765
v 3.642075 6.305756 -0.324780
v 2.563073 5.405414 -1.657252
v 0.612615 4.505072 -2.047758
v -0.500671 3.604730 -1.593493
v -0.790611 2.704388 -1.274305
v -0.852351 1.804046 -1.158088
v -0.922319 0.903704 -0.879854
v 2.668282 8.815714 3.688046
v 3.073743 7.957174 2.445651
v 3.431425 7.170280 1.553438
v 3.627242 6.305756 0.435825
v 2.839842 5.405414 -1.046239
v 1.060822 4.505072 -1.710062
v -0.014216 3.604730 -1.498355
v -0.347899 2.704388 -1.341144
v -0.489160 1.804046 -1.328163
v -0.662773 0.903704 -1.088741
v 1.622826 8.815714 4.252981
v 2.375283 7.957174 3.115011
v 2.992229 7.170280 2.233396
v 3.431257 6.305756 1.123094
v 2.950493 5.405414 -0.400902
v 1.445894 4.505072 -1.261591
v 0.452970 3.604730 -1.298104
v 0.106967 2.704388 -1.303080
v -0.093735 1.804046 -1.400575
v -0.358216 0.903704 -1.223495
v 0.466776 8.815714 4.528081
v 1.536605 7.957174 3.576514
v 2.418669 7.170280 2.761159
v 3.090084 6.305756 1.704971
v 2.900416 5.405414 0.239242
v 1.735912 4.505072 -0.715055
v 0.885474 3.604730 -0.982333
v 0.554741 2.704388 -1.150885
v 0.310175 1.804046 -1.367388
v -0.029214 0.903704 -1.274850
v 0.539482 0.723636 -1.094700
v 0.492718 0.557694 -1.089556
v 0.521303 0.426920 -1.197140
v 0.601779 0.266453 -1.419261
v 0.804429 0.723636 -0.917771
v 0.757927 0.557694 -0.924905
v 0.813383 0.426920 -1.021425
v 0.948605 0.266453 -1.215149
v 1.014555 0.723636 -0.678297
v 0.971484 0.557694 -0.697224
v 1.050031 0.426920 -0.776102
v 1.230786 0.266453 -0.928227
v 1.155541 0.723636 -0.392598
v 1.118836 0.557694 -0.422028
v 1.215122 0.426920 -0.477889
v 1.429091 0.266453 -0.578047
v 1.217779 0.723636 -0.080145
v 1.189942 0.557694 -0.118072
v 1.297405 0.426920 -0.147108
v 1.530005 0.266453 -0.188475
v 1.197027 0.723636 0.237770
v 1.179955 0.557694 0.193931
v 1.291271 0.426920 0.193698
v 1.526653 0.266453 0.213942
v 1.094700 0.723636 0.539482
v 1.089556 0.557694 0.492718
v 1.197140 0.426920 0.521303
v 1.419261 0.266453 0.601778
v 0.917771 0.723636 0.804429
v 0.924905 0.557694 0.757927
v 1.021425 0.426920 0.813383
v 1.215149 0.266453 0.948605
v 0.678297 0.723636 1.014555
v 0.697224 0.557694 0.971484
v 0.776102 0.426920 1.050031
v 0.928227 0.266453 1.230786
v 0.392598 0.723636 1.155541
v 0.422028 0.557694 1.118836
v 0.477889 0.426920 1.215122
v 0.578047 0.266453 1.429091
v 0.080145 0.723636 1.217779
v 0.118072 0.557694 1.189942
v 0.147108 0.426920 1.297405
v 0.188475 0.266453 1.530005
v -0.237770 0.723636 1.197027
v -0.193931 0.557694 1.179955
v -0.193698 0.426920 1.291271
v -0.213942 0.266453 1.526653
v -0.539482 0.723636 1.094700
v -0.492718 0.557694 1.089556
v -0.521303 0.426920 1.197140
v -0.601779 0.266453 1.419261
v -0.804429 0.723636 0.917771
v -0.757927 0.557694 0.924905
v -0.813383 0.426920 1.021425
v -0.948605 0.266453 1.215149
v -1.014555 0.723636 0.678297
v -0.971484 0.557694 0.697224
v -1.050032 0.426920 0.776102
v -1.230786 0.266453 0.928227
v -1.155541 0.723636 0.392598
v -1.118836 0.557694 0.422028
v -1.215122 0.426920 0.477888
v -1.429091 0.266453 0.578047
v -1.217779 0.723636 0.080145
v -1.189942 0.557694 0.118072
v -1.297405 0.426920 0.147108
v -1.530005 0.266453 0.188475
v -1.197027 0.723636 -0.237770
v -1.179955 0.557694 -0.193931
v -1.291271 0.426920 -0.193698
v -1.526653 0.266453 -0.213942
v -1.094700 0.723636 -0.539482
v -1.089556 0.557694 -0.492718
v -1.197140 0.426920 -0.521303
v -1.419261 0.266453 -0.601779
v -0.917771 0.723636 -0.804429
v -0.924905 0.557694 -0.757927
v -1.021425 0.426920 -0.813383
v -1.215149 0.266453 -0.948605
v -0.678297 0.723636 -1.014555
v -0.697224 0.557694 -0.971484
v -0.776102 0.426920 -1.050031
v -0.928227 0.266453 -1.230786
v -0.392598 0.723636 -1.155541
v -0.422028 0.557694 -1.118836
v -0.477888 0.426920 -1.215122
v -0.578047 0.266453 -1.429090
v -0.080145 0.723636 -1.217779
v -0.118072 0.557694 -1.189942
v -0.147108 0.426920 -1.297405
v -0.188475 0.266453 -1.530005
v 0.213942 0.266453 -1.526653
v 0.193698 0.426920 -1.291271
v 0.193931 0.557694 -1.179955
v 0.237770 0.723636 -1.197027
vn 0.0732 0.7972 -0.5993
vn -0.1985 -0.7094 0.6763
vn 0.2258 0.7972 -0.5599
vn -0.3668 -0.7094 0.6019
vn 0.3630 0.7972 -0.4824
vn -0.5100 -0.7094 0.4864
vn 0.4755 0.7972 -0.3720
vn -0.6186 -0.7094 0.3378
vn 0.5556 0.7972 -0.2362
vn -0.6849 -0.7094 0.1662
vn 0.5978 0.7972 -0.0844
vn -0.7046 -0.7094 -0.0167
vn 0.5993 0.7972 0.0732
vn -0.6763 -0.7094 -0.1985
vn 0.5599 0.7972 0.2258
vn -0.6019 -0.7094 -0.3668
vn 0.4824 0.7972 0.3630
vn -0.4864 -0.7094 -0.5100
vn 0.3720 0.7972 0.4755
vn -0.3378 -0.7094 -0.6186
vn 0.2362 0.7972 0.5556
vn -0.1662 -0.7094 -0.6849
vn 0.0844 0.7972 0.5978
vn 0.0167 -0.7094 -0.7046
vn -0.0732 0.7972 0.5993
vn 0.1985 -0.7094 -0.6763
vn -0.2258 0.7972 0.5599
vn 0.3668 -0.7094 -0.6019
vn -0.3630 0.7972 0.4824
vn 0.5100 -0.7094 -0.4864
vn -0.4755 0.7972 0.3720
vn 0.6186 -0.7094 -0.3378
vn -0.5556 0.7972 0.2362
vn 0.6849 -0.7094 -0.1662
vn -0.5978 0.7972 0.0844
vn 0.7046 -0.7094 0.0167
vn -0.5993 0.7972 -0.0732
vn 0.6763 -0.7094 0.1985
vn -0.5599 0.7972 -0.2258
vn 0.6019 -0.7094 0.3668
vn -0.4824 0.7972 -0.3630
vn 0.4864 -0.7094 0.5100
vn -0.3720 0.7972 -0.4755
vn 0.3378 -0.7094 0.6186
vn -0.2362 0.7972 -0.5556
vn 0.1662 -0.7094 0.6849
vn -0.0844 0.7972 -0.5978
vn -0.0167 -0.7094 0.7046
vn 0.2789 -0.2181 -0.9353
vn 0.4693 0.0006 -0.8830
vn 0.6802 0.0685 -0.7299
vn 0.8441 -0.2585 -0.4698
vn 0.7770 -0.6252 -0.0728
vn 0.6521 -0.6977 0.2966
vn 0.5521 -0.5167 0.6544
vn 0.3368 -0.4200 0.8427
vn 0.0843 -0.5657 0.8203
vn -0.1123 -0.6841 0.7207
vn -0.2902 -0.6940 0.6589
vn -0.1181 -0.6142 0.7803
vn 0.1175 -0.4955 0.8606
vn 0.3747 -0.5377 0.7553
vn 0.5925 -0.6560 0.4675
vn 0.8161 -0.5567 0.1554
vn 0.9567 -0.2053 -0.2061
vn 0.8571 0.0738 -0.5099
vn 0.6850 -0.0137 -0.7284
vn 0.5098 -0.2259 -0.8301
vn -0.4445 -0.7025 0.5558
vn -0.2951 -0.6571 0.6937
vn -0.0863 -0.5620 0.8226
vn 0.1898 -0.5449 0.8167
vn 0.4968 -0.5864 0.6398
vn 0.7881 -0.4598 0.4092
vn 0.9830 -0.1581 0.0935
vn 0.9683 0.0538 -0.2441
vn 0.8530 -0.0462 -0.5198
vn 0.7050 -0.2382 -0.6681
vn -0.5670 -0.7091 0.4192
vn -0.4388 -0.6918 0.5735
vn -0.2617 -0.6152 0.7437
vn 0.0044 -0.5339 0.8455
vn 0.3549 -0.4826 0.8007
vn 0.6754 -0.3325 0.6583
vn 0.9135 -0.1167 0.3897
vn 0.9989 0.0103 0.0451
vn 0.9577 -0.0947 -0.2718
vn 0.8504 -0.2542 -0.4608
vn -0.6513 -0.7138 0.2577
vn -0.5471 -0.7176 0.4309
vn -0.4059 -0.6532 0.6393
vn -0.1806 -0.5022 0.8457
vn 0.1621 -0.3436 0.9250
vn 0.4778 -0.1814 0.8595
vn 0.7565 -0.0823 0.6488
vn 0.9426 -0.0531 0.3297
vn 0.9877 -0.1562 -0.0040
vn 0.9360 -0.2725 -0.2226
vn -0.6926 -0.7168 0.0810
vn -0.6208 -0.7342 0.2749
vn -0.5233 -0.6762 0.5185
vn -0.3674 -0.4527 0.8124
vn -0.0711 -0.1805 0.9810
vn 0.2224 -0.0253 0.9746
vn 0.5340 -0.0562 0.8436
vn 0.8047 -0.1299 0.5793
vn 0.9396 -0.2253 0.2577
vn 0.9562 -0.2913 0.0287
vn -0.6883 -0.7184 -0.1002
vn -0.6596 -0.7436 0.1092
vn -0.6196 -0.6851 0.3830
vn -0.5522 -0.3927 0.7355
vn -0.3164 -0.0174 0.9485
vn -0.0510 0.1137 0.9922
vn 0.2734 -0.0416 0.9610
vn 0.6033 -0.2123 0.7688
vn 0.8208 -0.2956 0.4888
vn 0.9104 -0.3089 0.2753
vn -0.6384 -0.7191 -0.2745
vn -0.6617 -0.7472 -0.0615
vn -0.6956 -0.6811 0.2287
vn -0.7252 -0.3297 0.6044
vn -0.5409 0.1229 0.8321
vn -0.3068 0.2215 0.9257
vn 0.0009 -0.0414 0.9991
vn 0.3640 -0.2941 0.8838
vn 0.6472 -0.3611 0.6714
vn 0.8030 -0.3245 0.4999
vn -0.5458 -0.7188 -0.4305
vn -0.6259 -0.7452 -0.2300
vn -0.7441 -0.6662 0.0498
vn -0.8697 -0.2690 0.4139
vn -0.7237 0.2275 0.6515
vn -0.5282 0.2918 0.7974
vn -0.2624 -0.0574 0.9633
vn 0.1140 -0.3702 0.9219
vn 0.4380 -0.4178 0.7960
vn 0.6422 -0.3379 0.6881
vn -0.4163 -0.7178 -0.5580
vn -0.5522 -0.7375 -0.3889
vn -0.7537 -0.6398 -0.1502
vn -0.9616 -0.2154 0.1703
vn -0.8563 0.2919 0.4261
vn -0.7136 0.3209 0.6227
vn -0.5057 -0.0938 0.8576
vn -0.1271 -0.4389 0.8895
vn 0.2114 -0.4634 0.8606
vn 0.4397 -0.3484 0.8278
vn -0.2583 -0.7159 -0.6486
vn -0.4414 -0.7237 -0.5305
vn -0.7106 -0.6027 -0.3629
vn -0.9793 -0.1698 -0.1098
vn -0.9340 0.3144 0.1699
vn -0.8583 0.3104 0.4085
vn -0.7108 -0.1444 0.6884
vn -0.3434 -0.4979 0.7964
vn -0.0186 -0.4971 0.8675
vn 0.2096 -0.3558 0.9108
vn -0.0819 -0.7131 -0.6963
vn -0.2957 -0.7032 -0.6465
vn -0.6033 -0.5555 -0.5722
vn -0.9067 -0.1352 -0.3996
vn -0.9491 0.2972 -0.1039
vn -0.9496 0.2654 0.1667
vn -0.8577 -0.2028 0.4724
vn -0.5203 -0.5412 0.6607
vn -0.2375 -0.5175 0.8221
vn -0.0335 -0.3601 0.9323
vn 0.1017 -0.7091 -0.6977
vn -0.1188 -0.6758 -0.7275
vn -0.4285 -0.4977 -0.7541
vn -0.7428 -0.1137 -0.6598
vn -0.8937 0.2411 -0.3783
vn -0.9792 0.1811 -0.0912
vn -0.9351 -0.2664 0.2339
vn -0.6548 -0.5709 0.4953
vn -0.4382 -0.5264 0.7286
vn -0.2738 -0.3612 0.8914
vn 0.2809 -0.7038 -0.6525
vn 0.0819 -0.6408 -0.7633
vn -0.1964 -0.4298 -0.8813
vn -0.5069 -0.1047 -0.8556
vn -0.7630 0.1429 -0.6304
vn -0.9361 0.0645 -0.3458
vn -0.9416 -0.3365 -0.0082
vn -0.7480 -0.5872 0.3093
vn -0.6132 -0.5235 0.5915
vn -0.4967 -0.3584 0.7904
vn 0.4442 -0.6972 -0.5626
vn 0.2945 -0.5984 -0.7451
vn 0.0701 -0.3560 -0.9319
vn -0.2291 -0.1080 -0.9674
vn -0.5636 0.0176 -0.8258
vn -0.8140 -0.0840 -0.5747
vn -0.8850 -0.4028 -0.2335
vn -0.8012 -0.5880 0.1109
vn -0.7544 -0.5074 0.4165
vn -0.6876 -0.3509 0.6357
vn 0.5809 -0.6894 -0.4328
vn 0.5025 -0.5505 -0.6666
vn 0.3409 -0.2821 -0.8968
vn 0.0604 -0.1243 -0.9904
vn -0.3078 -0.1355 -0.9417
vn -0.6205 -0.2490 -0.7437
vn -0.7722 -0.4676 -0.4302
vn -0.8138 -0.5734 -0.0952
vn -0.8534 -0.4769 0.2105
vn -0.8334 -0.3384 0.4370
vn 0.6808 -0.6807 -0.2704
vn 0.6861 -0.5023 -0.5263
vn 0.5886 -0.2158 -0.7791
vn 0.3350 -0.1526 -0.9298
vn -0.0351 -0.2871 -0.9573
vn -0.3818 -0.4130 -0.8269
vn -0.6199 -0.5228 -0.5851
vn -0.7854 -0.5403 -0.3019
vn -0.9021 -0.4312 -0.0174
vn -0.9241 -0.3214 0.2068
vn 0.7358 -0.6718 -0.0852
vn 0.8237 -0.4594 -0.3322
vn 0.7895 -0.1647 -0.5912
vn 0.5743 -0.1917 -0.7959
vn 0.2153 -0.4219 -0.8807
vn -0.1470 -0.5453 -0.8253
vn -0.4544 -0.5533 -0.6982
vn -0.7157 -0.4857 -0.5019
vn -0.8933 -0.3704 -0.2546
vn -0.9528 -0.3011 -0.0395
vn 0.7396 -0.6639 0.1102
vn 0.8987 -0.4267 -0.1015
vn 0.9252 -0.1365 -0.3541
vn 0.7624 -0.2417 -0.6002
vn 0.4153 -0.5321 -0.7379
vn 0.0564 -0.6401 -0.7662
vn -0.2821 -0.5600 -0.7790
vn -0.6018 -0.4094 -0.6858
vn -0.8221 -0.2976 -0.4854
vn -0.9167 -0.2793 -0.2856
vn 0.6899 -0.6583 0.3011
vn 0.9013 -0.4088 0.1432
vn 0.9869 -0.1326 -0.0920
vn 0.8831 -0.2922 -0.3672
vn 0.5555 -0.6162 -0.5584
vn 0.2194 -0.6967 -0.6830
vn -0.1047 -0.5424 -0.8336
vn -0.4429 -0.3151 -0.8394
vn -0.6895 -0.2190 -0.6904
vn -0.8176 -0.2583 -0.5146
vn 0.5890 -0.6562 0.4717
vn 0.8310 -0.4091 0.3769
vn 0.9730 -0.1540 0.1718
vn 0.9316 -0.3433 -0.1194
vn 0.6399 -0.6698 -0.3766
vn 0.3532 -0.7222 -0.5947
vn 0.0805 -0.5034 -0.8603
vn -0.2441 -0.2118 -0.9463
vn -0.5040 -0.1432 -0.8518
vn -0.6618 -0.2401 -0.7102
vn 0.4445 -0.6584 0.6074
vn 0.6957 -0.4289 0.5763
vn 0.8875 -0.2002 0.4151
vn 0.9107 -0.3949 0.1210
vn 0.6820 -0.7031 -0.2011
vn 0.4727 -0.7245 -0.5017
vn 0.2754 -0.4489 -0.8501
vn -0.0173 -0.1116 -0.9936
vn -0.2793 -0.0787 -0.9570
vn -0.4594 -0.2265 -0.8589
vn 0.2693 -0.6646 0.6969
vn 0.5113 -0.4659 0.7222
vn 0.7400 -0.2676 0.6171
vn 0.8304 -0.4446 0.3358
vn 0.6948 -0.7184 -0.0346
vn 0.5865 -0.7068 -0.3957
vn 0.4762 -0.3847 -0.7908
vn 0.2229 -0.0263 -0.9745
vn -0.0305 -0.0318 -0.9990
vn -0.2238 -0.2183 -0.9499
vn 0.0786 -0.6738 0.7348
vn 0.2995 -0.5145 0.8034
vn 0.5523 -0.3409 0.7607
vn 0.7046 -0.4885 0.5147
vn 0.6850 -0.7169 0.1294
vn 0.6931 -0.6734 -0.2572
vn 0.6727 -0.3185 -0.6678
vn 0.4611 0.0352 -0.8867
vn 0.2250 -0.0052 -0.9744
vn 0.0285 -0.2155 -0.9761
vn 0.4316 -0.2224 -0.8742
vn 0.3945 0.2818 -0.8746
vn 0.2641 0.7478 -0.6091
vn 0.2271 0.8113 -0.5388
vn 0.6431 -0.2232 -0.7325
vn 0.6074 0.2818 -0.7427
vn 0.4128 0.7478 -0.5200
vn 0.3588 0.8113 -0.4617
vn 0.8107 -0.2238 -0.5409
vn 0.7790 0.2818 -0.5602
vn 0.5333 0.7478 -0.3955
vn 0.4661 0.8113 -0.3531
vn 0.9232 -0.2239 -0.3125
vn 0.8974 0.2818 -0.3395
vn 0.6175 0.7478 -0.2440
vn 0.5416 0.8113 -0.2204
vn 0.9727 -0.2236 -0.0629
vn 0.9547 0.2818 -0.0957
vn 0.6596 0.7478 -0.0758
vn 0.5802 0.8113 -0.0727
vn 0.9559 -0.2229 0.1912
vn 0.9469 0.2818 0.1547
vn 0.6567 0.7478 0.0975
vn 0.5792 0.8113 0.0799
vn 0.8741 -0.2221 0.4321
vn 0.8746 0.2818 0.3945
vn 0.6091 0.7478 0.2641
vn 0.5388 0.8113 0.2271
vn 0.7326 -0.2217 0.6435
vn 0.7427 0.2818 0.6074
vn 0.5200 0.7478 0.4128
vn 0.4617 0.8113 0.3588
vn 0.5411 -0.2217 0.8112
vn 0.5602 0.2818 0.7790
vn 0.3955 0.7478 0.5333
vn 0.3531 0.8113 0.4661
vn 0.3128 -0.2217 0.9236
vn 0.3395 0.2818 0.8974
vn 0.2440 0.7478 0.6175
vn 0.2204 0.8113 0.5416
vn 0.0630 -0.2217 0.9731
vn 0.0957 0.2818 0.9547
vn 0.0758 0.7478 0.6596
vn 0.0727 0.8113 0.5802
vn -0.1910 -0.2217 0.9562
vn -0.1547 0.2818 0.9469
vn -0.0975 0.7478 0.6567
vn -0.0799 0.8113 0.5792
vn -0.4319 -0.2217 0.8742
vn -0.3945 0.2818 0.8746
vn -0.2641 0.7478 0.6091
vn -0.2271 0.8113 0.5388
vn -0.6435 -0.2217 0.7327
vn -0.6074 0.2818 0.7427
vn -0.4128 0.7478 0.5200
vn -0.3588 0.8113 0.4617
vn -0.8112 -0.2217 0.5411
vn -0.7790 0.2818 0.5602
vn -0.5333 0.7478 0.3955
vn -0.4661 0.8113 0.3531
vn -0.9236 -0.2216 0.3127
vn -0.8974 0.2818 0.3395
vn -0.6175 0.7478 0.2440
vn -0.5416 0.8113 0.2204
vn -0.9732 -0.2214 0.0629
vn -0.9547 0.2818 0.0957
vn -0.6596 0.7478 0.0758
vn -0.5802 0.8113 0.0727
vn -0.9564 -0.2207 -0.1913
vn -0.9469 0.2818 -0.1547
vn -0.6567 0.7478 -0.0975
vn -0.5792 0.8113 -0.0799
vn -0.8745 -0.2200 -0.4323
vn -0.8746 0.2818 -0.3945
vn -0.6091 0.7478 -0.2641
vn -0.5388 0.8113 -0.2271
vn -0.7330 -0.2195 -0.6439
vn -0.7427 0.2818 -0.6074
vn -0.5200 0.7478 -0.4128
vn -0.4617 0.8113 -0.3588
vn -0.5415 -0.2195 -0.8116
vn -0.5602 0.2818 -0.7790
vn -0.3955 0.7478 -0.5333
vn -0.3531 0.8113 -0.4661
vn -0.3131 -0.2199 -0.9239
vn -0.3395 0.2818 -0.8974
vn -0.2440 0.7478 -0.6175
vn -0.2204 0.8113 -0.5416
vn -0.0633 -0.2207 -0.9733
vn -0.0957 0.2818 -0.9547
vn -0.0758 0.7478 -0.6596
vn -0.0727 0.8113 -0.5802
vn 0.0799 0.8113 -0.5792
vn 0.0975 0.7478 -0.6567
vn 0.1547 0.2818 -0.9469
vn 0.1907 -0.2215 -0.9563
vt 1.000000 0.909091
vt 1.000000 1.000000
vt 0.958333 1.000000
vt 0.958333 0.909091
vt 0.916667 1.000000
vt 0.916667 0.909091
vt 0.875000 1.000000
vt 0.875000 0.909091
vt 0.833333 1.000000
vt 0.833333 0.909091
vt 0.791667 1.000000
vt 0.791667 0.909091
vt 0.750000 1.000000
vt 0.750000 0.909091
vt 0.708333 1.000000
vt 0.708333 0.909091
vt 0.666667 1.000000
vt 0.666667 0.909091
vt 0.625000 1.000000
vt 0.625000 0.909091
vt 0.583333 1.000000
vt 0.583333 0.909091
vt 0.541666 1.000000
vt 0.541666 0.909091
vt 0.500000 1.000000
vt 0.500000 0.909091
vt 0.458333 1.000000
vt 0.458333 0.909091
vt 0.416666 1.000000
vt 0.416666 0.909091
vt 0.375000 1.000000
vt 0.375000 0.909091
vt 0.333333 1.000000
vt 0.333333 0.909091
vt 0.291667 1.000000
vt 0.291666 0.909091
vt 0.250000 1.000000
vt 0.250000 0.909091
vt 0.208333 1.000000
vt 0.208333 0.909091
vt 0.166666 1.000000
vt 0.166666 0.909091
vt 0.125000 1.000000
vt 0.125000 0.909091
vt 0.083333 1.000000
vt 0.083333 0.909091
vt 0.041666 1.000000
vt 0.041666 0.909091
vt -0.000000 1.000000
vt -0.000000 0.909091
vt 0.041666 0.072727
vt 0.041666 0.090909
vt -0.000000 0.090909
vt -0.000000 0.072727
vt 0.041666 0.181818
vt -0.000000 0.181818
vt 0.041666 0.272727
vt -0.000000 0.272727
vt 0.041666 0.363636
vt -0.000000 0.363636
vt 0.041666 0.454545
vt -0.000000 0.454545
vt 0.041666 0.545455
vt -0.000000 0.545455
vt 0.041666 0.636364
vt -0.000000 0.636364
vt 0.041666 0.727273
vt -0.000000 0.727273
vt 0.041666 0.818182
vt -0.000000 0.818182
vt 0.083333 0.072727
vt 0.083333 0.090909
vt 0.083333 0.181818
vt 0.083333 0.272727
vt 0.083333 0.363636
vt 0.083333 0.454545
vt 0.083333 0.545455
vt 0.083333 0.636364
vt 0.083333 0.727273
vt 0.083333 0.818182
vt 0.125000 0.072727
vt 0.125000 0.090909
vt 0.125000 0.181818
vt 0.125000 0.272727
vt 0.125000 0.363636
vt 0.125000 0.454545
vt 0.125000 0.545455
vt 0.125000 0.636364
vt 0.125000 0.727273
vt 0.125000 0.818182
vt 0.166666 0.072727
vt 0.166666 0.090909
vt 0.166666 0.181818
vt 0.166666 0.272727
vt 0.166666 0.363636
vt 0.166666 0.454545
vt 0.166667 0.545455
vt 0.166667 0.636364
vt 0.166667 0.727273
vt 0.166666 0.818182
vt 0.208333 0.072727
vt 0.208333 0.090909
vt 0.208333 0.181818
vt 0.208333 0.272727
vt 0.208333 0.363636
vt 0.208333 0.454545
vt 0.208333 0.545455
vt 0.208333 0.636364
vt 0.208333 0.727273
vt 0.208333 0.818182
vt 0.250000 0.072727
vt 0.250000 0.090909
vt 0.250000 0.181818
vt 0.250000 0.272727
vt 0.250000 0.363636
vt 0.250000 0.454545
vt 0.250000 0.545455
vt 0.250000 0.636364
vt 0.250000 0.727273
vt 0.250000 0.818182
vt 0.291667 0.072727
vt 0.291667 0.090909
vt 0.291666 0.181818
vt 0.291666 0.272727
vt 0.291666 0.363636
vt 0.291666 0.454545
vt 0.291666 0.545455
vt 0.291666 0.636364
vt 0.291666 0.727273
vt 0.291666 0.818182
vt 0.333333 0.072727
vt 0.333333 0.090909
vt 0.333333 0.181818
vt 0.333333 0.272727
vt 0.333333 0.363636
vt 0.333333 0.454545
vt 0.333333 0.545455
vt 0.333333 0.636364
vt 0.333333 0.727273
vt 0.333333 0.818182
vt 0.375000 0.072727
vt 0.375000 0.090909
vt 0.375000 0.181818
vt 0.375000 0.272727
vt 0.375000 0.363636
vt 0.375000 0.454545
vt 0.375000 0.545455
vt 0.375000 0.636364
vt 0.375000 0.727273
vt 0.375000 0.818182
vt 0.416667 0.072727
vt 0.416666 0.090909
vt 0.416666 0.181818
vt 0.416667 0.272727
vt 0.416667 0.363636
vt 0.416666 0.454545
vt 0.416666 0.545455
vt 0.416666 0.636364
vt 0.416666 0.727273
vt 0.416666 0.818182
vt 0.458333 0.072727
vt 0.458333 0.090909
vt 0.458333 0.181818
vt 0.458333 0.272727
vt 0.458333 0.363636
vt 0.458333 0.454545
vt 0.458333 0.545455
vt 0.458333 0.636364
vt 0.458333 0.727273
vt 0.458333 0.818182
vt 0.500000 0.072727
vt 0.500000 0.090909
vt 0.500000 0.181818
vt 0.500000 0.272727
vt 0.500000 0.363636
vt 0.500000 0.454545
vt 0.500000 0.545455
vt 0.500000 0.636364
vt 0.500000 0.727273
vt 0.500000 0.818182
vt 0.541666 0.072727
vt 0.541666 0.090909
vt 0.541666 0.181818
vt 0.541666 0.272727
vt 0.541666 0.363636
vt 0.541666 0.454545
vt 0.541666 0.545455
vt 0.541666 0.636364
vt 0.541666 0.727273
vt 0.541666 0.818182
vt 0.583333 0.072727
vt 0.583333 0.090909
vt 0.583333 0.181818
vt 0.583333 0.272727
vt 0.583333 0.363636
vt 0.583333 0.454545
vt 0.583333 0.545455
vt 0.583333 0.636364
vt 0.583333 0.727273
vt 0.583333 0.818182
vt 0.625000 0.072727
vt 0.625000 0.090909
vt 0.625000 0.181818
vt 0.625000 0.272727
vt 0.625000 0.363636
vt 0.625000 0.454545
vt 0.625000 0.545455
vt 0.625000 0.636364
vt 0.625000 0.727273
vt 0.625000 0.818182
vt 0.666667 0.072727
vt 0.666667 0.090909
vt 0.666667 0.181818
vt 0.666667 0.272727
vt 0.666667 0.363636
vt 0.666667 0.454545
vt 0.666667 0.545455
vt 0.666667 0.636364
vt 0.666667 0.727273
vt 0.666667 0.818182
vt 0.708333 0.072727
vt 0.708333 0.090909
vt 0.708333 0.181818
vt 0.708333 0.272727
vt 0.708333 0.363636
vt 0.708333 0.454545
vt 0.708333 0.545455
vt 0.708333 0.636364
vt 0.708333 0.727273
vt 0.708333 0.818182
vt 0.750000 0.072727
vt 0.750000 0.090909
vt 0.750000 0.181818
vt 0.750000 0.272727
vt 0.750000 0.363636
vt 0.750000 0.454545
vt 0.750000 0.545455
vt 0.750000 0.636364
vt 0.750000 0.727273
vt 0.750000 0.818182
vt 0.791667 0.072727
vt 0.791667 0.090909
vt 0.791667 0.181818
vt 0.791667 0.272727
vt 0.791667 0.363636
vt 0.791667 0.454545
vt 0.791667 0.545455
vt 0.791667 0.636364
vt 0.791667 0.727273
vt 0.791667 0.818182
vt 0.833333 0.072727
vt 0.833333 0.090909
vt 0.833333 0.181818
vt 0.833333 0.272727
vt 0.833333 0.363636
vt 0.833333 0.454545
vt 0.833333 0.545455
vt 0.833333 0.636364
vt 0.833333 0.727273
vt 0.833333 0.818182
vt 0.875000 0.072727
vt 0.875000 0.090909
vt 0.875000 0.181818
vt 0.875000 0.272727
vt 0.875000 0.363636
vt 0.875000 0.454545
vt 0.875000 0.545455
vt 0.875000 0.636364
vt 0.875000 0.727273
vt 0.875000 0.818182
vt 0.916667 0.072727
vt 0.916667 0.090909
vt 0.916667 0.181818
vt 0.916667 0.272727
vt 0.916667 0.363636
vt 0.916667 0.454545
vt 0.916667 0.545455
vt 0.916667 0.636364
vt 0.916667 0.727273
vt 0.916667 0.818182
vt 0.958333 0.072727
vt 0.958333 0.090909
vt 0.958333 0.181818
vt 0.958333 0.272727
vt 0.958333 0.363636
vt 0.958333 0.454545
vt 0.958333 0.545455
vt 0.958333 0.636364
vt 0.958333 0.727273
vt 0.958333 0.818182
vt 1.000000 0.072727
vt 1.000000 0.090909
vt 1.000000 0.181818
vt 1.000000 0.272727
vt 1.000000 0.363636
vt 1.000000 0.454545
vt 1.000000 0.545455
vt 1.000000 0.636364
vt 1.000000 0.727273
vt 1.000000 0.818182
vt 1.000000 0.000000
vt 1.000000 0.018182
vt 0.958333 0.018182
vt 0.958333 0.000000
vt 1.000000 0.036364
vt 0.958333 0.036364
vt 1.000000 0.054545
vt 0.958333 0.054545
vt 0.916667 0.018182
vt 0.916667 0.000000
vt 0.916667 0.036364
vt 0.916667 0.054545
vt 0.875000 0.018182
vt 0.875000 0.000000
vt 0.875000 0.036364
vt 0.875000 0.054545
vt 0.833333 0.018182
vt 0.833333 0.000000
vt 0.833333 0.036364
vt 0.833333 0.054545
vt 0.791667 0.018182
vt 0.791667 0.000000
vt 0.791667 0.036364
vt 0.791667 0.054545
vt 0.750000 0.018182
vt 0.750000 0.000000
vt 0.750000 0.036364
vt 0.750000 0.054545
vt 0.708333 0.018182
vt 0.708333 0.000000
vt 0.708333 0.036364
vt 0.708333 0.054545
vt 0.666667 0.018182
vt 0.666667 0.000000
vt 0.666667 0.036364
vt 0.666667 0.054545
vt 0.625000 0.018182
vt 0.625000 0.000000
vt 0.625000 0.036364
vt 0.625000 0.054545
vt 0.583333 0.018182
vt 0.583333 0.000000
vt 0.583333 0.036364
vt 0.583333 0.054545
vt 0.541666 0.018182
vt 0.541666 0.000000
vt 0.541666 0.036364
vt 0.541666 0.054545
vt 0.500000 0.018182
vt 0.500000 0.000000
vt 0.500000 0.036364
vt 0.500000 0.054545
vt 0.458333 0.018182
vt 0.458333 0.000000
vt 0.458333 0.036364
vt 0.458333 0.054545
vt 0.416666 0.018182
vt 0.416666 0.000000
vt 0.416666 0.036364
vt 0.416667 0.054545
vt 0.375000 0.018182
vt 0.375000 0.000000
vt 0.375000 0.036364
vt 0.375000 0.054545
vt 0.333333 0.018182
vt 0.333333 0.000000
vt 0.333333 0.036364
vt 0.333333 0.054545
vt 0.291667 0.018182
vt 0.291667 0.000000
vt 0.291667 0.036364
vt 0.291667 0.054545
vt 0.250000 0.018182
vt 0.250000 0.000000
vt 0.250000 0.036364
vt 0.250000 0.054545
vt 0.208333 0.018182
vt 0.208333 0.000000
vt 0.208333 0.036364
vt 0.208333 0.054545
vt 0.166666 0.018182
vt 0.166666 0.000000
vt 0.166666 0.036364
vt 0.166666 0.054545
vt 0.125000 0.018182
vt 0.125000 0.000000
vt 0.125000 0.036364
vt 0.125000 0.054545
vt 0.083333 0.018182
vt 0.083333 0.000000
vt 0.083333 0.036364
vt 0.083333 0.054545
vt 0.041666 0.018182
vt 0.041666 0.000000
vt 0.041666 0.036364
vt 0.041666 0.054545
vt -0.000000 0.018182
vt -0.000000 0.000000
vt -0.000000 0.036364
vt -0.000000 0.054545
s 1
f 58/1/58 2/2/2 4/3/4 59/4/59
f 59/4/59 4/3/4 6/5/6 69/6/69
f 69/6/69 6/5/6 8/7/8 79/8/79
f 79/8/79 8/7/8 10/9/10 89/10/89
f 89/10/89 10/9/10 12/11/12 99/12/99
f 99/12/99 12/11/12 14/13/14 109/14/109
f 109/14/109 14/13/14 16/15/16 119/16/119
f 119/16/119 16/15/16 18/17/18 129/18/129
f 129/18/129 18/17/18 20/19/20 139/20/139
f 139/20/139 20/19/20 22/21/22 149/22/149
f 149/22/149 22/21/22 24/23/24 159/24/159
f 159/24/159 24/23/24 26/25/26 169/26/169
f 169/26/169 26/25/26 28/27/28 179/28/179
f 179/28/179 28/27/28 30/29/30 189/30/189
f 189/30/189 30/29/30 32/31/32 199/32/199
f 199/32/199 32/31/32 34/33/34 209/34/209
f 209/34/209 34/33/34 36/35/36 219/36/219
f 219/36/219 36/35/36 38/37/38 229/38/229
f 229/38/229 38/37/38 40/39/40 239/40/239
f 239/40/239 40/39/40 42/41/42 249/42/249
f 249/42/249 42/41/42 44/43/44 259/44/259
f 259/44/259 44/43/44 46/45/46 269/46/269
f 269/46/269 46/45/46 48/47/48 279/48/279
f 279/48/279 48/47/48 2/49/2 58/50/58
f 377/51/377 288/52/288 49/53/49 384/54/384
f 288/52/288 287/55/287 50/56/50 49/53/49
f 287/55/287 286/57/286 51/58/51 50/56/50
f 286/57/286 285/59/285 52/60/52 51/58/51
f 285/59/285 284/61/284 53/62/53 52/60/52
f 284/61/284 283/63/283 54/64/54 53/62/53
f 283/63/283 282/65/282 55/66/55 54/64/54
f 282/65/282 281/67/281 56/68/56 55/66/55
f 281/67/281 280/69/280 57/70/57 56/68/56
f 280/69/280 279/48/279 58/50/58 57/70/57
f 373/71/373 278/72/278 288/52/288 377/51/377
f 278/72/278 277/73/277 287/55/287 288/52/288
f 277/73/277 276/74/276 286/57/286 287/55/287
f 276/74/276 275/75/275 285/59/285 286/57/286
f 275/75/275 274/76/274 284/61/284 285/59/285
f 274/76/274 273/77/273 283/63/283 284/61/284
f 273/77/273 272/78/272 282/65/282 283/63/283
f 272/78/272 271/79/271 281/67/281 282/65/282
f 271/79/271 270/80/270 280/69/280 281/67/281
f 270/80/270 269/46/269 279/48/279 280/69/280
f 369/81/369 268/82/268 278/72/278 373/71/373
f 268/82/268 267/83/267 277/73/277 278/72/278
f 267/83/267 266/84/266 276/74/276 277/73/277
f 266/84/266 265/85/265 275/75/275 276/74/276
f 265/85/265 264/86/264 274/76/274 275/75/275
f 264/86/264 263/87/263 273/77/273 274/76/274
f 263/87/263 262/88/262 272/78/272 273/77/273
f 262/88/262 261/89/261 271/79/271 272/78/272
f 261/89/261 260/90/260 270/80/270 271/79/271
f 260/90/260 259/44/259 269/46/269 270/80/270
f 365/91/365 258/92/258 268/82/268 369/81/369
f 258/92/258 257/93/257 267/83/267 268/82/268
f 257/93/257 256/94/256 266/84/266 267/83/267
f 256/94/256 255/95/255 265/85/265 266/84/266
f 255/95/255 254/96/254 264/86/264 265/85/265
f 254/96/254 253/97/253 263/87/263 264/86/264
f 253/97/253 252/98/252 262/88/262 263/87/263
f 252/98/252 251/99/251 261/89/261 262/88/262
f 251/99/251 250/100/250 260/90/260 261/89/261
f 250/100/250 249/42/249 259/44/259 260/90/260
f 361/101/361 248/102/248 258/92/258 365/91/365
f 248/102/248 247/103/247 257/93/257 258/92/258
f 247/103/247 246/104/246 256/94/256 257/93/257
f 246/104/246 245/105/245 255/95/255 256/94/256
f 245/105/245 244/106/244 254/96/254 255/95/255
f 244/106/244 243/107/243 253/97/253 254/96/254
f 243/107/243 242/108/242 252/98/252 253/97/253
f 242/108/242 241/109/241 251/99/251 252/98/252
f 241/109/241 240/110/240 250/100/250 251/99/251
f 240/110/240 239/40/239 249/42/249 250/100/250
f 357/111/357 238/112/238 248/102/248 361/101/361
f 238/112/238 237/113/237 247/103/247 248/102/248
f 237/113/237 236/114/236 246/104/246 247/103/247
f 236/114/236 235/115/235 245/105/245 246/104/246
f 235/115/235 234/116/234 244/106/244 245/105/245
f 234/116/234 233/117/233 243/107/243 244/106/244
f 233/117/233 232/118/232 242/108/242 243/107/243
f 232/118/232 231/119/231 241/109/241 242/108/242
f 231/119/231 230/120/230 240/110/240 241/109/241
f 230/120/230 229/38/229 239/40/239 240/110/240
f 353/121/353 228/122/228 238/112/238 357/111/357
f 228/122/228 227/123/227 237/113/237 238/112/238
f 227/123/227 226/124/226 236/114/236 237/113/237
f 226/124/226 225/125/225 235/115/235 236/114/236
f 225/125/225 224/126/224 234/116/234 235/115/235
f 224/126/224 223/127/223 233/117/233 234/116/234
f 223/127/223 222/128/222 232/118/232 233/117/233
f 222/128/222 221/129/221 231/119/231 232/118/232
f 221/129/221 220/130/220 230/120/230 231/119/231
f 220/130/220 219/36/219 229/38/229 230/120/230
f 349/131/349 218/132/218 228/122/228 353/121/353
f 218/132/218 217/133/217 227/123/227 228/122/228
f 217/133/217 216/134/216 226/124/226 227/123/227
f 216/134/216 215/135/215 225/125/225 226/124/226
f 215/135/215 214/136/214 224/126/224 225/125/225
f 214/136/214 213/137/213 223/127/223 224/126/224
f 213/137/213 212/138/212 222/128/222 223/127/223
f 212/138/212 211/139/211 221/129/221 222/128/222
f 211/139/211 210/140/210 220/130/220 221/129/221
f 210/140/210 209/34/209 219/36/219 220/130/220
f 345/141/345 208/142/208 218/132/218 349/131/349
f 208/142/208 207/143/207 217/133/217 218/132/218
f 207/143/207 206/144/206 216/134/216 217/133/217
f 206/144/206 205/145/205 215/135/215 216/134/216
f 205/145/205 204/146/204 214/136/214 215/135/215
f 204/146/204 203/147/203 213/137/213 214/136/214
f 203/147/203 202/148/202 212/138/212 213/137/213
f 202/148/202 201/149/201 211/139/211 212/138/212
f 201/149/201 200/150/200 210/140/210 211/139/211
f 200/150/200 199/32/199 209/34/209 210/140/210
f 341/151/341 198/152/198 208/142/208 345/141/345
f 198/152/198 197/153/197 207/143/207 208/142/208
f 197/153/197 196/154/196 206/144/206 207/143/207
f 196/154/196 195/155/195 205/145/205 206/144/206
f 195/155/195 194/156/194 204/146/204 205/145/205
f 194/156/194 193/157/193 203/147/203 204/146/204
f 193/157/193 192/158/192 202/148/202 203/147/203
f 192/158/192 191/159/191 201/149/201 202/148/202
f 191/159/191 190/160/190 200/150/200 201/149/201
f 190/160/190 189/30/189 199/32/199 200/150/200
f 337/161/337 188/162/188 198/152/198 341/151/341
f 188/162/188 187/163/187 197/153/197 198/152/198
f 187/163/187 186/164/186 196/154/196 197/153/197
f 186/164/186 185/165/185 195/155/195 196/154/196
f 185/165/185 184/166/184 194/156/194 195/155/195
f 184/166/184 183/167/183 193/157/193 194/156/194
f 183/167/183 182/168/182 192/158/192 193/157/193
f 182/168/182 181/169/181 191/159/191 192/158/192
f 181/169/181 180/170/180 190/160/190 191/159/191
f 180/170/180 179/28/179 189/30/189 190/160/190
f 333/171/333 178/172/178 188/162/188 337/161/337
f 178/172/178 177/173/177 187/163/187 188/162/188
f 177/173/177 176/174/176 186/164/186 187/163/187
f 176/174/176 175/175/175 185/165/185 186/164/186
f 175/175/175 174/176/174 184/166/184 185/165/185
f 174/176/174 173/177/173 183/167/183 184/166/184
f 173/177/173 172/178/172 182/168/182 183/167/183
f 172/178/172 171/179/171 181/169/181 182/168/182
f 171/179/171 170/180/170 180/170/180 181/169/181
f 170/180/170 169/26/169 179/28/179 180/170/180
f 329/181/329 168/182/168 178/172/178 333/171/333
f 168/182/168 167/183/167 177/173/177 178/172/178
f 167/183/167 166/184/166 176/174/176 177/173/177
f 166/184/166 165/185/165 175/175/175 176/174/176
f 165/185/165 164/186/164 174/176/174 175/175/175
f 164/186/164 163/187/163 173/177/173 174/176/174
f 163/187/163 162/188/162 172/178/172 173/177/173
f 162/188/162 161/189/161 171/179/171 172/178/172
f 161/189/161 160/190/160 170/180/170 171/179/171
f 160/190/160 159/24/159 169/26/169 170/180/170
f 325/191/325 158/192/158 168/182/168 329/181/329
f 158/192/158 157/193/157 167/183/167 168/182/168
f 157/193/157 156/194/156 166/184/166 167/183/167
f 156/194/156 155/195/155 165/185/165 166/184/166
f 155/195/155 154/196/154 164/186/164 165/185/165
f 154/196/154 153/197/153 163/187/163 164/186/164
f 153/197/153 152/198/152 162/188/162 163/187/163
f 152/198/152 151/199/151 161/189/161 162/188/162
f 151/199/151 150/200/150 160/190/160 161/189/161
f 150/200/150 149/22/149 159/24/159 160/190/160
f 321/201/321 148/202/148 158/192/158 325/191/325
f 148/202/148 147/203/147 157/193/157 158/192/158
f 147/203/147 146/204/146 156/194/156 157/193/157
f 146/204/146 145/205/145 155/195/155 156/194/156
f 145/205/145 144/206/144 154/196/154 155/195/155
f 144/206/144 143/207/143 153/197/153 154/196/154
f 143/207/143 142/208/142 152/198/152 153/197/153
f 142/208/142 141/209/141 151/199/151 152/198/152
f 141/209/141 140/210/140 150/200/150 151/199/151
f 140/210/140 139/20/139 149/22/149 150/200/150
f 317/211/317 138/212/138 148/202/148 321/201/321
f 138/212/138 137/213/137 147/203/147 148/202/148
f 137/213/137 136/214/136 146/204/146 147/203/147
f 136/214/136 135/215/135 145/205/145 146/204/146
f 135/215/135 134/216/134 144/206/144 145/205/145
f 134/216/134 133/217/133 143/207/143 144/206/144
f 133/217/133 132/218/132 142/208/142 143/207/143
f 132/218/132 131/219/131 141/209/141 142/208/142
f 131/219/131 130/220/130 140/210/140 141/209/141
f 130/220/130 129/18/129 139/20/139 140/210/140
f 313/221/313 128/222/128 138/212/138 317/211/317
f 128/222/128 127/223/127 137/213/137 138/212/138
f 127/223/127 126/224/126 136/214/136 137/213/137
f 126/224/126 125/225/125 135/215/135 136/214/136
f 125/225/125 124/226/124 134/216/134 135/215/135
f 124/226/124 123/227/123 133/217/133 134/216/134
f 123/227/123 122/228/122 132/218/132 133/217/133
f 122/228/122 121/229/121 131/219/131 132/218/132
f 121/229/121 120/230/120 130/220/130 131/219/131
f 120/230/120 119/16/119 129/18/129 130/220/130
f 309/231/309 118/232/118 128/222/128 313/221/313
f 118/232/118 117/233/117 127/223/127 128/222/128
f 117/233/117 116/234/116 126/224/126 127/223/127
f 116/234/116 115/235/115 125/225/125 126/224/126
f 115/235/115 114/236/114 124/226/124 125/225/125
f 114/236/114 113/237/113 123/227/123 124/226/124
f 113/237/113 112/238/112 122/228/122 123/227/123
f 112/238/112 111/239/111 121/229/121 122/228/122
f 111/239/111 110/240/110 120/230/120 121/229/121
f 110/240/110 109/14/109 119/16/119 120/230/120
f 305/241/305 108/242/108 118/232/118 309/231/309
f 108/242/108 107/243/107 117/233/117 118/232/118
f 107/243/107 106/244/106 116/234/116 117/233/117
f 106/244/106 105/245/105 115/235/115 116/234/116
f 105/245/105 104/246/104 114/236/114 115/235/115
f 104/246/104 103/247/103 113/237/113 114/236/114
f 103/247/103 102/248/102 112/238/112 113/237/113
f 102/248/102 101/249/101 111/239/111 112/238/112
f 101/249/101 100/250/100 110/240/110 111/239/111
f 100/250/100 99/12/99 109/14/109 110/240/110
f 301/251/301 98/252/98 108/242/108 305/241/305
f 98/252/98 97/253/97 107/243/107 108/242/108
f 97/253/97 96/254/96 106/244/106 107/243/107
f 96/254/96 95/255/95 105/245/105 106/244/106
f 95/255/95 94/256/94 104/246/104 105/245/105
f 94/256/94 93/257/93 103/247/103 104/246/104
f 93/257/93 92/258/92 102/248/102 103/247/103
f 92/258/92 91/259/91 101/249/101 102/248/102
f 91/259/91 90/260/90 100/250/100 101/249/101
f 90/260/90 89/10/89 99/12/99 100/250/100
f 297/261/297 88/262/88 98/252/98 301/251/301
f 88/262/88 87/263/87 97/253/97 98/252/98
f 87/263/87 86/264/86 96/254/96 97/253/97
f 86/264/86 85/265/85 95/255/95 96/254/96
f 85/265/85 84/266/84 94/256/94 95/255/95
f 84/266/84 83/267/83 93/257/93 94/256/94
f 83/267/83 82/268/82 92/258/92 93/257/93
f 82/268/82 81/269/81 91/259/91 92/258/92
f 81/269/81 80/270/80 90/260/90 91/259/91
f 80/270/80 79/8/79 89/10/89 90/260/90
f 293/271/293 78/272/78 88/262/88 297/261/297
f 78/272/78 77/273/77 87/263/87 88/262/88
f 77/273/77 76/274/76 86/264/86 87/263/87
f 76/274/76 75/275/75 85/265/85 86/264/86
f 75/275/75 74/276/74 84/266/84 85/265/85
f 74/276/74 73/277/73 83/267/83 84/266/84
f 73/277/73 72/278/72 82/268/82 83/267/83
f 72/278/72 71/279/71 81/269/81 82/268/82
f 71/279/71 70/280/70 80/270/80 81/269/81
f 70/280/70 69/6/69 79/8/79 80/270/80
f 289/281/289 68/282/68 78/272/78 293/271/293
f 68/282/68 67/283/67 77/273/77 78/272/78
f 67/283/67 66/284/66 76/274/76 77/273/77
f 66/284/66 65/285/65 75/275/75 76/274/76
f 65/285/65 64/286/64 74/276/74 75/275/75
f 64/286/64 63/287/63 73/277/73 74/276/74
f 63/287/63 62/288/62 72/278/72 73/277/73
f 62/288/62 61/289/61 71/279/71 72/278/72
f 61/289/61 60/290/60 70/280/70 71/279/71
f 60/290/60 59/4/59 69/6/69 70/280/70
f 384/291/384 49/292/49 68/282/68 289/281/289
f 49/292/49 50/293/50 67/283/67 68/282/68
f 50/293/50 51/294/51 66/284/66 67/283/67
f 51/294/51 52/295/52 65/285/65 66/284/66
f 52/295/52 53/296/53 64/286/64 65/285/65
f 53/296/53 54/297/54 63/287/63 64/286/64
f 54/297/54 55/298/55 62/288/62 63/287/63
f 55/298/55 56/299/56 61/289/61 62/288/62
f 56/299/56 57/300/57 60/290/60 61/289/61
f 57/300/57 58/1/58 59/4/59 60/290/60
f 1/301/1 381/302/381 292/303/292 3/304/3
f 381/302/381 382/305/382 291/306/291 292/303/292
f 382/305/382 383/307/383 290/308/290 291/306/291
f 383/307/383 384/291/384 289/281/289 290/308/290
f 3/304/3 292/303/292 296/309/296 5/310/5
f 292/303/292 291/306/291 295/311/295 296/309/296
f 291/306/291 290/308/290 294/312/294 295/311/295
f 290/308/290 289/281/289 293/271/293 294/312/294
f 5/310/5 296/309/296 300/313/300 7/314/7
f 296/309/296 295/311/295 299/315/299 300/313/300
f 295/311/295 294/312/294 298/316/298 299/315/299
f 294/312/294 293/271/293 297/261/297 298/316/298
f 7/314/7 300/313/300 304/317/304 9/318/9
f 300/313/300 299/315/299 303/319/303 304/317/304
f 299/315/299 298/316/298 302/320/302 303/319/303
f 298/316/298 297/261/297 301/251/301 302/320/302
f 9/318/9 304/317/304 308/321/308 11/322/11
f 304/317/304 303/319/303 307/323/307 308/321/308
f 303/319/303 302/320/302 306/324/306 307/323/307
f 302/320/302 301/251/301 305/241/305 306/324/306
f 11/322/11 308/321/308 312/325/312 13/326/13
f 308/321/308 307/323/307 311/327/311 312/325/312
f 307/323/307 306/324/306 310/328/310 311/327/311
f 306/324/306 305/241/305 309/231/309 310/328/310
f 13/326/13 312/325/312 316/329/316 15/330/15
f 312/325/312 311/327/311 315/331/315 316/329/316
f 311/327/311 310/328/310 314/332/314 315/331/315
f 310/328/310 309/231/309 313/221/313 314/332/314
f 15/330/15 316/329/316 320/333/320 17/334/17
f 316/329/316 315/331/315 319/335/319 320/333/320
f 315/331/315 314/332/314 318/336/318 319/335/319
f 314/332/314 313/221/313 317/211/317 318/336/318
f 17/334/17 320/333/320 324/337/324 19/338/19
f 320/333/320 319/335/319 323/339/323 324/337/324
f 319/335/319 318/336/318 322/340/322 323/339/323
f 318/336/318 317/211/317 321/201/321 322/340/322
f 19/338/19 324/337/324 328/341/328 21/342/21
f 324/337/324 323/339/323 327/343/327 328/341/328
f 323/339/323 322/340/322 326/344/326 327/343/327
f 322/340/322 321/201/321 325/191/325 326/344/326
f 21/342/21 328/341/328 332/345/332 23/346/23
f 328/341/328 327/343/327 331/347/331 332/345/332
f 327/343/327 326/344/326 330/348/330 331/347/331
f 326/344/326 325/191/325 329/181/329 330/348/330
f 23/346/23 332/345/332 336/349/336 25/350/25
f 332/345/332 331/347/331 335/351/335 336/349/336
f 331/347/331 330/348/330 334/352/334 335/351/335
f 330/348/330 329/181/329 333/171/333 334/352/334
f 25/350/25 336/349/336 340/353/340 27/354/27
f 336/349/336 335/351/335 339/355/339 340/353/340
f 335/351/335 334/352/334 338/356/338 339/355/339
f 334/352/334 333/171/333 337/161/337 338/356/338
f 27/354/27 340/353/340 344/357/344 29/358/29
f 340/353/340 339/355/339 343/359/343 344/357/344
f 339/355/339 338/356/338 342/360/342 343/359/343
f 338/356/338 337/161/337 341/151/341 342/360/342
f 29/358/29 344/357/344 348/361/348 31/362/31
f 344/357/344 343/359/343 347/363/347 348/361/348
f 343/359/343 342/360/342 346/364/346 347/363/347
f 342/360/342 341/151/341 345/141/345 346/364/346
f 31/362/31 348/361/348 352/365/352 33/366/33
f 348/361/348 347/363/347 351/367/351 352/365/352
f 347/363/347 346/364/346 350/368/350 351/367/351
f 346/364/346 345/141/345 349/131/349 350/368/350
f 33/366/33 352/365/352 356/369/356 35/370/35
f 352/365/352 351/367/351 355/371/355 356/369/356
f 351/367/351 350/368/350 354/372/354 355/371/355
f 350/368/350 349/131/349 353/121/353 354/372/354
f 35/370/35 356/369/356 360/373/360 37/374/37
f 356/369/356 355/371/355 359/375/359 360/373/360
f 355/371/355 354/372/354 358/376/358 359/375/359
f 354/372/354 353/121/353 357/111/357 358/376/358
f 37/374/37 360/373/360 364/377/364 39/378/39
f 360/373/360 359/375/359 363/379/363 364/377/364
f 359/375/359 358/376/358 362/380/362 363/379/363
f 358/376/358 357/111/357 361/101/361 362/380/362
f 39/378/39 364/377/364 368/381/368 41/382/41
f 364/377/364 363/379/363 367/383/367 368/381/368
f 363/379/363 362/380/362 366/384/366 367/383/367
f 362/380/362 361/101/361 365/91/365 366/384/366
f 41/382/41 368/381/368 372/385/372 43/386/43
f 368/381/368 367/383/367 371/387/371 372/385/372
f 367/383/367 366/384/366 370/388/370 371/387/371
f 366/384/366 365/91/365 369/81/369 370/388/370
f 43/386/43 372/385/372 376/389/376 45/390/45
f 372/385/372 371/387/371 375/391/375 376/389/376
f 371/387/371 370/388/370 374/392/374 375/391/375
f 370/388/370 369/81/369 373/71/373 374/392/374
f 45/390/45 376/389/376 380/393/380 47/394/47
f 376/389/376 375/391/375 379/395/379 380/393/380
f 375/391/375 374/392/374 378/396/378 379/395/379
f 374/392/374 373/71/373 377/51/377 378/396/378
f 47/394/47 380/393/380 381/397/381 1/398/1
f 380/393/380 379/395/379 382/399/382 381/397/381
f 379/395/379 378/396/378 383/400/383 382/399/382
f 378/396/378 377/51/377 384/54/384 383/400/383
