# Blender 5.1.2
# www.blender.org
mtllib tornado_base.mtl
o Cylinder
v 0.074419 0.030478 -0.997227
v -1.467193 1.030478 -0.474318
v 0.329984 0.030478 -0.943986
v -1.294437 1.030478 -0.837894
v 0.563062 0.030478 -0.826415
v -1.033467 1.030478 -1.144368
v 0.757768 0.030478 -0.652524
v -0.702069 1.030478 -1.372856
v 0.900833 0.030478 -0.434165
v -0.322825 1.030478 -1.507786
v 0.982508 0.030478 -0.186218
v 0.078419 1.030478 -1.539963
v 0.997227 0.030478 0.074419
v 0.474318 1.030478 -1.467193
v 0.943986 0.030478 0.329984
v 0.837894 1.030478 -1.294437
v 0.826415 0.030478 0.563062
v 1.144368 1.030478 -1.033468
v 0.652524 0.030478 0.757768
v 1.372856 1.030478 -0.702069
v 0.434165 0.030478 0.900833
v 1.507786 1.030478 -0.322825
v 0.186218 0.030478 0.982508
v 1.539963 1.030478 0.078419
v -0.074419 0.030478 0.997227
v 1.467193 1.030478 0.474318
v -0.329984 0.030478 0.943986
v 1.294437 1.030478 0.837894
v -0.563062 0.030478 0.826415
v 1.033467 1.030478 1.144368
v -0.757768 0.030478 0.652524
v 0.702069 1.030478 1.372856
v -0.900833 0.030478 0.434165
v 0.322825 1.030478 1.507786
v -0.982508 0.030478 0.186218
v -0.078419 1.030478 1.539963
v -0.997227 0.030478 -0.074419
v -0.474318 1.030478 1.467193
v -0.943986 0.030478 -0.329984
v -0.837894 1.030478 1.294437
v -0.826415 0.030478 -0.563062
v -1.144368 1.030478 1.033467
v -0.652524 0.030478 -0.757768
v -1.372856 1.030478 0.702069
v -0.434165 0.030478 -0.900833
v -1.507786 1.030478 0.322825
v -0.186218 0.030478 -0.982508
v -1.539963 1.030478 -0.078419
v -0.384822 0.280478 -1.068292
v -0.841822 0.530478 -0.952220
v -1.220239 0.780478 -0.699407
v -0.997641 0.780478 -0.991396
v -0.566686 0.530478 -1.137653
v -0.095215 0.280478 -1.131490
v -0.707055 0.780478 -1.215824
v -0.252930 0.530478 -1.245558
v 0.200881 0.280478 -1.117579
v -0.368284 0.780478 -1.357395
v 0.078063 0.530478 -1.268579
v 0.483286 0.280478 -1.027507
v -0.004416 0.780478 -1.406461
v 0.403735 0.530478 -1.205150
v 0.732757 0.280478 -0.867412
v 0.359754 0.780478 -1.359680
v 0.701894 0.530478 -1.059591
v 0.932292 0.280478 -0.648204
v 0.699407 0.780478 -1.220239
v 0.952220 0.530478 -0.841823
v 1.068292 0.280478 -0.384822
v 0.991396 0.780478 -0.997641
v 1.137653 0.530478 -0.566686
v 1.131490 0.280478 -0.095215
v 1.215824 0.780478 -0.707055
v 1.245558 0.530478 -0.252930
v 1.117579 0.280478 0.200881
v 1.357395 0.780478 -0.368284
v 1.268579 0.530478 0.078063
v 1.027507 0.280478 0.483286
v 1.406461 0.780478 -0.004416
v 1.205150 0.530478 0.403735
v 0.867412 0.280478 0.732757
v 1.359680 0.780478 0.359754
v 1.059591 0.530478 0.701894
v 0.648204 0.280478 0.932292
v 1.220239 0.780478 0.699407
v 0.841823 0.530478 0.952220
v 0.384822 0.280478 1.068292
v 0.997641 0.780478 0.991396
v 0.566686 0.530478 1.137653
v 0.095215 0.280478 1.131490
v 0.707055 0.780478 1.215824
v 0.252930 0.530478 1.245558
v -0.200881 0.280478 1.117579
v 0.368284 0.780478 1.357395
v -0.078063 0.530478 1.268579
v -0.483286 0.280478 1.027507
v 0.004415 0.780478 1.406461
v -0.403735 0.530478 1.205149
v -0.732757 0.280478 0.867412
v -0.359754 0.780478 1.359680
v -0.701894 0.530478 1.059591
v -0.932292 0.280478 0.648204
v -0.699407 0.780478 1.220239
v -0.952220 0.530478 0.841823
v -1.068292 0.280478 0.384822
v -0.991396 0.780478 0.997641
v -1.137653 0.530478 0.566685
v -1.131490 0.280478 0.095215
v -1.215824 0.780478 0.707055
v -1.245558 0.530478 0.252930
v -1.117579 0.280478 -0.200881
v -1.357395 0.780478 0.368284
v -1.268579 0.530478 -0.078063
v -1.027507 0.280478 -0.483286
v -1.406461 0.780478 0.004416
v -1.205150 0.530478 -0.403735
v -0.867412 0.280478 -0.732757
v -1.359680 0.780478 -0.359754
v -1.059591 0.530478 -0.701894
v -0.648204 0.280478 -0.932292
vn -0.0541 -0.4833 -0.8738
vn -0.8268 -0.4776 -0.2970
vn 0.1739 -0.4833 -0.8580
vn -0.7218 -0.4776 -0.5009
vn 0.3900 -0.4833 -0.7838
vn -0.5675 -0.4776 -0.6706
vn 0.5796 -0.4833 -0.6562
vn -0.3746 -0.4776 -0.7947
vn 0.7297 -0.4833 -0.4838
vn -0.1562 -0.4776 -0.8646
vn 0.8300 -0.4833 -0.2785
vn 0.0729 -0.4776 -0.8755
vn 0.8738 -0.4833 -0.0541
vn 0.2970 -0.4776 -0.8268
vn 0.8580 -0.4833 0.1739
vn 0.5009 -0.4776 -0.7218
vn 0.7838 -0.4833 0.3900
vn 0.6706 -0.4776 -0.5675
vn 0.6562 -0.4833 0.5796
vn 0.7947 -0.4776 -0.3746
vn 0.4838 -0.4833 0.7297
vn 0.8646 -0.4776 -0.1562
vn 0.2785 -0.4833 0.8300
vn 0.8755 -0.4776 0.0729
vn 0.0541 -0.4833 0.8738
vn 0.8268 -0.4776 0.2970
vn -0.1739 -0.4833 0.8580
vn 0.7218 -0.4776 0.5009
vn -0.3900 -0.4833 0.7838
vn 0.5675 -0.4776 0.6706
vn -0.5796 -0.4833 0.6562
vn 0.3746 -0.4776 0.7947
vn -0.7297 -0.4833 0.4838
vn 0.1562 -0.4776 0.8646
vn -0.8300 -0.4833 0.2785
vn -0.0729 -0.4776 0.8755
vn -0.8738 -0.4833 0.0541
vn -0.2970 -0.4776 0.8268
vn -0.8580 -0.4833 -0.1739
vn -0.5009 -0.4776 0.7218
vn -0.7838 -0.4833 -0.3900
vn -0.6706 -0.4776 0.5675
vn -0.6562 -0.4833 -0.5796
vn -0.7947 -0.4776 0.3746
vn -0.4838 -0.4833 -0.7297
vn -0.8646 -0.4776 0.1562
vn -0.2785 -0.4833 -0.8300
vn -0.8755 -0.4776 -0.0729
vn -0.2972 -0.4851 -0.8224
vn -0.5783 -0.4826 -0.6578
vn -0.7543 -0.4795 -0.4485
vn -0.6125 -0.4795 -0.6284
vn -0.3883 -0.4826 -0.7851
vn -0.0743 -0.4851 -0.8713
vn -0.4290 -0.4795 -0.7655
vn -0.1719 -0.4826 -0.8588
vn 0.1538 -0.4851 -0.8608
vn -0.2163 -0.4795 -0.8505
vn 0.0562 -0.4826 -0.8741
vn 0.3714 -0.4851 -0.7917
vn 0.0112 -0.4795 -0.8775
vn 0.2805 -0.4826 -0.8297
vn 0.5636 -0.4851 -0.6686
vn 0.2380 -0.4795 -0.8447
vn 0.4857 -0.4826 -0.7288
vn 0.7175 -0.4851 -0.5000
vn 0.4485 -0.4795 -0.7543
vn 0.6578 -0.4826 -0.5783
vn 0.8224 -0.4851 -0.2972
vn 0.6284 -0.4795 -0.6125
vn 0.7851 -0.4826 -0.3883
vn 0.8713 -0.4851 -0.0743
vn 0.7655 -0.4795 -0.4290
vn 0.8588 -0.4826 -0.1719
vn 0.8608 -0.4851 0.1538
vn 0.8505 -0.4795 -0.2163
vn 0.8741 -0.4826 0.0562
vn 0.7917 -0.4851 0.3714
vn 0.8775 -0.4795 0.0112
vn 0.8297 -0.4826 0.2805
vn 0.6686 -0.4851 0.5636
vn 0.8447 -0.4795 0.2380
vn 0.7288 -0.4826 0.4857
vn 0.5000 -0.4851 0.7175
vn 0.7543 -0.4795 0.4485
vn 0.5783 -0.4826 0.6578
vn 0.2972 -0.4851 0.8224
vn 0.6125 -0.4795 0.6284
vn 0.3883 -0.4826 0.7851
vn 0.0743 -0.4851 0.8713
vn 0.4290 -0.4795 0.7655
vn 0.1719 -0.4826 0.8588
vn -0.1538 -0.4851 0.8608
vn 0.2163 -0.4795 0.8505
vn -0.0562 -0.4826 0.8741
vn -0.3714 -0.4851 0.7917
vn -0.0112 -0.4795 0.8775
vn -0.2805 -0.4826 0.8297
vn -0.5636 -0.4851 0.6686
vn -0.2380 -0.4795 0.8447
vn -0.4857 -0.4826 0.7288
vn -0.7175 -0.4851 0.5000
vn -0.4485 -0.4795 0.7543
vn -0.6578 -0.4826 0.5783
vn -0.8224 -0.4851 0.2972
vn -0.6284 -0.4795 0.6125
vn -0.7851 -0.4826 0.3883
vn -0.8713 -0.4851 0.0743
vn -0.7655 -0.4795 0.4290
vn -0.8588 -0.4826 0.1719
vn -0.8608 -0.4851 -0.1538
vn -0.8505 -0.4795 0.2163
vn -0.8741 -0.4826 -0.0562
vn -0.7917 -0.4851 -0.3714
vn -0.8775 -0.4795 -0.0112
vn -0.8297 -0.4826 -0.2805
vn -0.6686 -0.4851 -0.5636
vn -0.8447 -0.4795 -0.2380
vn -0.7288 -0.4826 -0.4857
vn -0.5000 -0.4851 -0.7175
vt 1.000000 0.750000
vt 1.000000 1.000000
vt 0.958333 1.000000
vt 0.958333 0.750000
vt 0.916667 1.000000
vt 0.916667 0.750000
vt 0.875000 1.000000
vt 0.875000 0.750000
vt 0.833333 1.000000
vt 0.833333 0.750000
vt 0.791667 1.000000
vt 0.791667 0.750000
vt 0.750000 1.000000
vt 0.750000 0.750000
vt 0.708333 1.000000
vt 0.708333 0.750000
vt 0.666667 1.000000
vt 0.666667 0.750000
vt 0.625000 1.000000
vt 0.625000 0.750000
vt 0.583333 1.000000
vt 0.583333 0.750000
vt 0.541666 1.000000
vt 0.541666 0.750000
vt 0.500000 1.000000
vt 0.500000 0.750000
vt 0.458333 1.000000
vt 0.458333 0.750000
vt 0.416666 1.000000
vt 0.416666 0.750000
vt 0.375000 1.000000
vt 0.375000 0.750000
vt 0.333333 1.000000
vt 0.333333 0.750000
vt 0.291667 1.000000
vt 0.291667 0.750000
vt 0.250000 1.000000
vt 0.250000 0.750000
vt 0.208333 1.000000
vt 0.208333 0.750000
vt 0.166666 1.000000
vt 0.166667 0.750000
vt 0.125000 1.000000
vt 0.125000 0.750000
vt 0.083333 1.000000
vt 0.083333 0.750000
vt 0.041666 1.000000
vt 0.041666 0.750000
vt -0.000000 1.000000
vt -0.000000 0.750000
vt 0.041666 0.000000
vt 0.041666 0.250000
vt -0.000000 0.250000
vt -0.000000 0.000000
vt 0.041666 0.500000
vt -0.000000 0.500000
vt 0.083333 0.000000
vt 0.083333 0.250000
vt 0.083333 0.500000
vt 0.125000 0.000000
vt 0.125000 0.250000
vt 0.125000 0.500000
vt 0.166666 0.000000
vt 0.166666 0.250000
vt 0.166666 0.500000
vt 0.208333 0.000000
vt 0.208333 0.250000
vt 0.208333 0.500000
vt 0.250000 0.000000
vt 0.250000 0.250000
vt 0.250000 0.500000
vt 0.291667 0.000000
vt 0.291667 0.250000
vt 0.291666 0.500000
vt 0.333333 0.000000
vt 0.333333 0.250000
vt 0.333333 0.500000
vt 0.375000 0.000000
vt 0.375000 0.250000
vt 0.375000 0.500000
vt 0.416666 0.000000
vt 0.416666 0.250000
vt 0.416666 0.500000
vt 0.458333 0.000000
vt 0.458333 0.250000
vt 0.458333 0.500000
vt 0.500000 0.000000
vt 0.500000 0.250000
vt 0.500000 0.500000
vt 0.541666 0.000000
vt 0.541666 0.250000
vt 0.541666 0.500000
vt 0.583333 0.000000
vt 0.583333 0.250000
vt 0.583333 0.500000
vt 0.625000 0.000000
vt 0.625000 0.250000
vt 0.625000 0.500000
vt 0.666667 0.000000
vt 0.666667 0.250000
vt 0.666667 0.500000
vt 0.708333 0.000000
vt 0.708333 0.250000
vt 0.708333 0.500000
vt 0.750000 0.000000
vt 0.750000 0.250000
vt 0.750000 0.500000
vt 0.791667 0.000000
vt 0.791667 0.250000
vt 0.791666 0.500000
vt 0.833333 0.000000
vt 0.833333 0.250000
vt 0.833333 0.500000
vt 0.875000 0.000000
vt 0.875000 0.250000
vt 0.875000 0.500000
vt 0.916667 0.000000
vt 0.916667 0.250000
vt 0.916667 0.500000
vt 0.958333 0.000000
vt 0.958333 0.250000
vt 0.958333 0.500000
vt 1.000000 0.000000
vt 1.000000 0.250000
vt 1.000000 0.500000
s 1
f 51/1/51 2/2/2 4/3/4 52/4/52
f 52/4/52 4/3/4 6/5/6 55/6/55
f 55/6/55 6/5/6 8/7/8 58/8/58
f 58/8/58 8/7/8 10/9/10 61/10/61
f 61/10/61 10/9/10 12/11/12 64/12/64
f 64/12/64 12/11/12 14/13/14 67/14/67
f 67/14/67 14/13/14 16/15/16 70/16/70
f 70/16/70 16/15/16 18/17/18 73/18/73
f 73/18/73 18/17/18 20/19/20 76/20/76
f 76/20/76 20/19/20 22/21/22 79/22/79
f 79/22/79 22/21/22 24/23/24 82/24/82
f 82/24/82 24/23/24 26/25/26 85/26/85
f 85/26/85 26/25/26 28/27/28 88/28/88
f 88/28/88 28/27/28 30/29/30 91/30/91
f 91/30/91 30/29/30 32/31/32 94/32/94
f 94/32/94 32/31/32 34/33/34 97/34/97
f 97/34/97 34/33/34 36/35/36 100/36/100
f 100/36/100 36/35/36 38/37/38 103/38/103
f 103/38/103 38/37/38 40/39/40 106/40/106
f 106/40/106 40/39/40 42/41/42 109/42/109
f 109/42/109 42/41/42 44/43/44 112/44/112
f 112/44/112 44/43/44 46/45/46 115/46/115
f 115/46/115 46/45/46 48/47/48 118/48/118
f 118/48/118 48/47/48 2/49/2 51/50/51
f 47/51/47 120/52/120 49/53/49 1/54/1
f 120/52/120 119/55/119 50/56/50 49/53/49
f 119/55/119 118/48/118 51/50/51 50/56/50
f 45/57/45 117/58/117 120/52/120 47/51/47
f 117/58/117 116/59/116 119/55/119 120/52/120
f 116/59/116 115/46/115 118/48/118 119/55/119
f 43/60/43 114/61/114 117/58/117 45/57/45
f 114/61/114 113/62/113 116/59/116 117/58/117
f 113/62/113 112/44/112 115/46/115 116/59/116
f 41/63/41 111/64/111 114/61/114 43/60/43
f 111/64/111 110/65/110 113/62/113 114/61/114
f 110/65/110 109/42/109 112/44/112 113/62/113
f 39/66/39 108/67/108 111/64/111 41/63/41
f 108/67/108 107/68/107 110/65/110 111/64/111
f 107/68/107 106/40/106 109/42/109 110/65/110
f 37/69/37 105/70/105 108/67/108 39/66/39
f 105/70/105 104/71/104 107/68/107 108/67/108
f 104/71/104 103/38/103 106/40/106 107/68/107
f 35/72/35 102/73/102 105/70/105 37/69/37
f 102/73/102 101/74/101 104/71/104 105/70/105
f 101/74/101 100/36/100 103/38/103 104/71/104
f 33/75/33 99/76/99 102/73/102 35/72/35
f 99/76/99 98/77/98 101/74/101 102/73/102
f 98/77/98 97/34/97 100/36/100 101/74/101
f 31/78/31 96/79/96 99/76/99 33/75/33
f 96/79/96 95/80/95 98/77/98 99/76/99
f 95/80/95 94/32/94 97/34/97 98/77/98
f 29/81/29 93/82/93 96/79/96 31/78/31
f 93/82/93 92/83/92 95/80/95 96/79/96
f 92/83/92 91/30/91 94/32/94 95/80/95
f 27/84/27 90/85/90 93/82/93 29/81/29
f 90/85/90 89/86/89 92/83/92 93/82/93
f 89/86/89 88/28/88 91/30/91 92/83/92
f 25/87/25 87/88/87 90/85/90 27/84/27
f 87/88/87 86/89/86 89/86/89 90/85/90
f 86/89/86 85/26/85 88/28/88 89/86/89
f 23/90/23 84/91/84 87/88/87 25/87/25
f 84/91/84 83/92/83 86/89/86 87/88/87
f 83/92/83 82/24/82 85/26/85 86/89/86
f 21/93/21 81/94/81 84/91/84 23/90/23
f 81/94/81 80/95/80 83/92/83 84/91/84
f 80/95/80 79/22/79 82/24/82 83/92/83
f 19/96/19 78/97/78 81/94/81 21/93/21
f 78/97/78 77/98/77 80/95/80 81/94/81
f 77/98/77 76/20/76 79/22/79 80/95/80
f 17/99/17 75/100/75 78/97/78 19/96/19
f 75/100/75 74/101/74 77/98/77 78/97/78
f 74/101/74 73/18/73 76/20/76 77/98/77
f 15/102/15 72/103/72 75/100/75 17/99/17
f 72/103/72 71/104/71 74/101/74 75/100/75
f 71/104/71 70/16/70 73/18/73 74/101/74
f 13/105/13 69/106/69 72/103/72 15/102/15
f 69/106/69 68/107/68 71/104/71 72/103/72
f 68/107/68 67/14/67 70/16/70 71/104/71
f 11/108/11 66/109/66 69/106/69 13/105/13
f 66/109/66 65/110/65 68/107/68 69/106/69
f 65/110/65 64/12/64 67/14/67 68/107/68
f 9/111/9 63/112/63 66/109/66 11/108/11
f 63/112/63 62/113/62 65/110/65 66/109/66
f 62/113/62 61/10/61 64/12/64 65/110/65
f 7/114/7 60/115/60 63/112/63 9/111/9
f 60/115/60 59/116/59 62/113/62 63/112/63
f 59/116/59 58/8/58 61/10/61 62/113/62
f 5/117/5 57/118/57 60/115/60 7/114/7
f 57/118/57 56/119/56 59/116/59 60/115/60
f 56/119/56 55/6/55 58/8/58 59/116/59
f 3/120/3 54/121/54 57/118/57 5/117/5
f 54/121/54 53/122/53 56/119/56 57/118/57
f 53/122/53 52/4/52 55/6/55 56/119/56
f 1/123/1 49/124/49 54/121/54 3/120/3
f 49/124/49 50/125/50 53/122/53 54/121/54
f 50/125/50 51/1/51 52/4/52 53/122/53
